<svg width="56" height="56" viewBox="0 0 56 56" fill="none" xmlns="http://www.w3.org/2000/svg">
<g id="Type/Image">
<rect width="56" height="56" rx="4" fill="#F1F1F1"/>
<rect x="1" y="1" width="54" height="54" rx="3" stroke="#FEFEFE" stroke-opacity="0.933333" stroke-width="2"/>
<g id="Random Symboles 6">
<g id="Clip path group">
<mask id="mask0_1184_4992" style="mask-type:luminance" maskUnits="userSpaceOnUse" x="8" y="10" width="40" height="36">
<g id="clip0">
<path id="Vector" d="M48 10H8V45.8426H48V10Z" fill="white"/>
</g>
</mask>
<g mask="url(#mask0_1184_4992)">
<g id="Group">
<path id="Vector_2" d="M44.8021 41.86C45.491 40.5869 46.0625 39.2536 46.5094 37.8767C46.9321 36.5745 47.2605 35.2436 47.4921 33.8943C47.7214 32.577 47.8708 31.2471 47.9393 29.9118C47.974 29.2664 48 28.6115 48 27.9208C48 27.23 47.974 26.5752 47.9393 25.9293C47.8704 24.5942 47.721 23.2644 47.4921 21.9473C47.2605 20.5979 46.9321 19.267 46.5094 17.9648H18.0821C17.4365 19.2278 16.9485 20.5653 16.6289 21.9473C16.3207 23.2557 16.123 24.5878 16.0378 25.9293C15.9945 26.5622 15.9653 27.2206 15.9653 27.9208C15.9653 28.621 15.9945 29.279 16.0378 29.9118C16.1229 31.2535 16.3206 32.5857 16.6289 33.8943C16.9482 35.2763 17.4362 36.6138 18.0821 37.8767H37.9172C38.5642 36.6142 39.0529 35.2766 39.3723 33.8943C39.6805 32.5857 39.8782 31.2535 39.9634 29.9118C40.0071 29.279 40.0366 28.6214 40.0366 27.9208C40.0366 27.2202 40.0071 26.5622 39.9634 25.9293H24.0095C23.9598 26.5495 23.9307 27.2107 23.9307 27.9208C23.9307 28.6308 23.9598 29.2916 24.0095 29.9118H35.973C35.8786 31.2615 35.6372 32.5969 35.2531 33.8943H20.7481C20.3641 32.5968 20.122 31.2615 20.0262 29.9118C19.9773 29.2916 19.9474 28.6316 19.9474 27.9208C19.9474 27.2099 19.9762 26.5495 20.0262 25.9293C20.1222 24.5798 20.3642 23.2447 20.7481 21.9473H43.4497C43.7081 23.261 43.8757 24.591 43.9513 25.9278C43.9907 26.5681 44.0171 27.2281 44.0171 27.9192C44.0171 28.6103 43.9896 29.2699 43.9513 29.9102C43.8757 31.2477 43.7078 32.5783 43.4489 33.8927C43.1817 35.252 42.7938 36.5848 42.2897 37.8752C41.7444 39.2959 41.0086 40.6359 40.1024 41.8584H15.8964C14.9896 40.6361 14.2535 39.2961 13.7083 37.8752C13.2042 36.5848 12.8164 35.252 12.5495 33.8927C12.2898 32.5784 12.122 31.2478 12.0471 29.9102C12.0077 29.2699 11.9817 28.6135 11.9817 27.9192C11.9817 27.2249 12.0093 26.5681 12.0471 25.9278C12.1221 24.5904 12.29 23.2598 12.5495 21.9457C12.8165 20.5864 13.2043 19.2536 13.7083 17.9632C14.2536 16.5426 14.9897 15.2028 15.8964 13.9808H44.8013C43.315 11.2541 41.8677 9.99829 41.8677 9.99829H14.1307C14.1307 9.99829 12.6842 11.2541 11.1983 13.9808C10.5095 15.2536 9.93801 16.5866 9.49101 17.9632C9.06832 19.2655 8.73978 20.5964 8.50791 21.9457C8.27866 23.2628 8.12918 24.5926 8.06029 25.9278C8.02561 26.5736 8 27.2281 8 27.9192C8 28.6103 8.02561 29.2648 8.06029 29.9102C8.12909 31.2455 8.27857 32.5755 8.50791 33.8927C8.73978 35.242 9.06832 36.5729 9.49101 37.8752C9.93772 39.2521 10.5092 40.5854 11.1983 41.8584C12.6842 44.5839 14.1307 45.8409 14.1307 45.8409H41.8685C41.8685 45.8409 43.3158 44.5855 44.8021 41.86Z" fill="#90601D"/>
</g>
</g>
</g>
</g>
</g>
</svg>
