<svg width="56" height="56" viewBox="0 0 56 56" fill="none" xmlns="http://www.w3.org/2000/svg">
<g id="Type/Image">
<rect width="56" height="56" rx="4" fill="#F1F1F1"/>
<rect x="1" y="1" width="54" height="54" rx="3" stroke="#FEFEFE" stroke-opacity="0.933333" stroke-width="2"/>
<g id="Group 1">
<g id="Clip path group">
<mask id="mask0_1183_4728" style="mask-type:luminance" maskUnits="userSpaceOnUse" x="8" y="7" width="40" height="40">
<g id="clip0">
<path id="Vector" d="M48 7H8V47H48V7Z" fill="white"/>
</g>
</mask>
<g mask="url(#mask0_1183_4728)">
<g id="Group">
<path id="Vector_2" d="M11.9153 24.5407C11.7528 23.9345 11.7528 23.2963 11.9152 22.6901C12.0776 22.084 12.3968 21.5312 12.8405 21.0875L22.0875 11.8406C22.5312 11.3968 23.0839 11.0777 23.6901 10.9153C24.2962 10.7528 24.9345 10.7529 25.5406 10.9153L34.1935 13.2338C34.2835 12.0484 34.6962 10.9102 35.3869 9.94257L24.9652 7.15037C24.2171 6.94995 23.4295 6.94996 22.6815 7.15038C21.9335 7.35081 21.2514 7.74459 20.7037 8.29216L9.29234 19.7036C8.74477 20.2512 8.35099 20.9333 8.15057 21.6813C7.95014 22.4293 7.95014 23.217 8.15055 23.965L11.0502 34.7864C11.9981 34.0625 13.1266 33.6129 14.3126 33.4869L11.9153 24.5407Z" fill="#18CDCA"/>
<path id="Vector_3" d="M41.6082 20.2141L44.0855 29.4593C44.248 30.0656 44.2478 30.7038 44.0855 31.3098C43.923 31.9161 43.6038 32.4687 43.1601 32.9125L33.9131 42.1596C33.4694 42.6034 32.9167 42.9223 32.3104 43.0849C31.7044 43.2472 31.066 43.2472 30.46 43.0849L21.5138 40.6876C21.3877 41.8736 20.9382 43.0022 20.2142 43.95L31.0356 46.8496C31.7836 47.0501 32.5713 47.0501 33.3192 46.8496C34.0674 46.6491 34.7494 46.2555 35.2971 45.7078L46.7085 34.2964C47.2561 33.7487 47.6498 33.0668 47.8503 32.3186C48.0508 31.5706 48.0508 30.783 47.8503 30.035L44.8413 18.8085C43.9134 19.5658 42.7947 20.0522 41.6082 20.2141Z" fill="#18CDCA"/>
<path id="Vector_4" d="M11.3103 36.2788C10.5774 37.0116 10.0784 37.9455 9.87615 38.9619C9.67395 39.9785 9.77772 41.0322 10.1743 41.9897C10.571 42.9471 11.2426 43.7656 12.1044 44.3415C12.9661 44.9171 13.9793 45.2246 15.0157 45.2246C16.0521 45.2246 17.0653 44.9171 17.927 44.3415C18.7888 43.7656 19.4605 42.9471 19.8571 41.9897C20.2537 41.0322 20.3575 39.9785 20.1553 38.9619C19.9531 37.9455 19.454 37.0116 18.7211 36.2788C17.7376 35.2976 16.405 34.7465 15.0157 34.7465C13.6264 34.7465 12.2938 35.2976 11.3103 36.2788Z" fill="#4F80E1"/>
<path id="Vector_5" d="M37.008 10.04C36.2752 10.7729 35.776 11.7066 35.5739 12.7231C35.3717 13.7396 35.4754 14.7933 35.8721 15.7508C36.2687 16.7083 36.9403 17.5268 37.802 18.1026C38.6638 18.6784 39.677 18.9857 40.7133 18.9857C41.7499 18.9857 42.763 18.6784 43.6248 18.1026C44.4865 17.5268 45.1581 16.7083 45.5547 15.7508C45.9514 14.7933 46.0551 13.7396 45.8529 12.7231C45.6509 11.7066 45.1516 10.7729 44.4188 10.04C43.4354 9.05872 42.1027 8.50763 40.7133 8.50763C39.3241 8.50763 37.9914 9.05872 37.008 10.04Z" fill="#4F80E1"/>
<path id="Vector_6" d="M31.0762 40.8907C30.8657 40.8907 30.6564 40.8631 30.453 40.8087L22.2639 38.6143C21.9909 37.1561 21.2834 35.8145 20.2344 34.7655C19.1854 33.7166 17.8439 33.009 16.3857 32.7361L14.1915 24.5476C14.0827 24.1391 14.083 23.7093 14.1925 23.3011C14.3019 22.8928 14.5165 22.5204 14.8149 22.221L23.2202 13.8156C23.5192 13.5166 23.8916 13.3015 24.3 13.1921C24.7085 13.0827 25.1385 13.0827 25.5469 13.1922L33.5065 15.3249C33.8222 16.7741 34.5682 18.0941 35.6469 19.112C36.7255 20.1299 38.0865 20.7984 39.5513 21.0298L41.808 29.4537C41.9167 29.8623 41.9165 30.2921 41.8069 30.7003C41.6976 31.1086 41.483 31.481 41.1844 31.7804L32.7791 40.1857C32.5561 40.4098 32.2905 40.5878 31.9982 40.7086C31.7059 40.8297 31.3926 40.8916 31.0762 40.8907Z" fill="#4F80E1"/>
</g>
</g>
</g>
</g>
</g>
</svg>
